HIERARCHY
ROOT Hips
{
	OFFSET -3.958830 18.904000 13.208200
	CHANNELS 6 Xposition Yposition Zposition Zrotation Yrotation Xrotation 
	JOINT LHipJoint
	{
		OFFSET 0.000000 0.000000 0.000000
		CHANNELS 3 Zrotation Yrotation Xrotation
		JOINT LeftUpLeg
		{
			OFFSET 1.800000 -1.400000 0.085000
			CHANNELS 3 Zrotation Yrotation Xrotation
			JOINT LeftLeg
			{
				OFFSET 2.215000 -6.000000 0.000000
				CHANNELS 3 Zrotation Yrotation Xrotation
				JOINT LeftFoot
				{
					OFFSET 2.500000 -6.900000 0.000000
					CHANNELS 3 Zrotation Yrotation Xrotation
					JOINT LeftToeBase
					{
						OFFSET 0.200000 -0.500000 1.950000
						CHANNELS 3 Zrotation Yrotation Xrotation
						End Site
						{
							OFFSET 0.000000 0.000000 0.000000
						}
					}
				}
			}
		}
	}
	JOINT RHipJoint
	{
		OFFSET 0.000000 0.000000 0.000000
		CHANNELS 3 Zrotation Yrotation Xrotation
		JOINT RightUpLeg
		{
			OFFSET -1.800000 -1.400000 0.085000
			CHANNELS 3 Zrotation Yrotation Xrotation
			JOINT RightLeg
			{
				OFFSET -2.215000 -6.000000 0.000000
				CHANNELS 3 Zrotation Yrotation Xrotation
				JOINT RightFoot
				{
					OFFSET -2.500000 -6.900000 0.000000
					CHANNELS 3 Zrotation Yrotation Xrotation
					JOINT RightToeBase
					{
						OFFSET -0.200000 -0.500000 1.950000
						CHANNELS 3 Zrotation Yrotation Xrotation
						End Site
						{
							OFFSET 0.000000 0.000000 0.000000
						}
					}
				}
			}
		}
	}
	JOINT LowerBack
	{
		OFFSET 0.000000 0.000000 0.000000
		CHANNELS 3 Zrotation Yrotation Xrotation
		JOINT Spine
		{
			OFFSET -0.087000 1.940000 -0.288900
			CHANNELS 3 Zrotation Yrotation Xrotation
			JOINT Spine1
			{
				OFFSET 0.000000 1.950000 0.060000
				CHANNELS 3 Zrotation Yrotation Xrotation
				JOINT Neck
				{
					OFFSET 0.000000 0.000000 0.000000
					CHANNELS 3 Zrotation Yrotation Xrotation
					JOINT Neck1
					{
						OFFSET 0.000000 1.600000 0.340000
						CHANNELS 3 Zrotation Yrotation Xrotation
						JOINT Head
						{
							OFFSET 0.000000 1.667000 -0.240000
							CHANNELS 3 Zrotation Yrotation Xrotation
							End Site
							{
								OFFSET 0.000000 0.000000 0.000000
							}
						}
					}
				}
				JOINT LeftShoulder
				{
					OFFSET 0.000000 0.000000 0.000000
					CHANNELS 3 Zrotation Yrotation Xrotation
					JOINT LeftArm
					{
						OFFSET 2.700000 1.550000 -0.730000
						CHANNELS 3 Zrotation Yrotation Xrotation
						JOINT LeftForeArm
						{
							OFFSET 5.450000 0.000000 0.000000
							CHANNELS 3 Zrotation Yrotation Xrotation
							JOINT LeftHand
							{
								OFFSET 3.450000 0.000000 0.000000
								CHANNELS 3 Zrotation Yrotation Xrotation
								JOINT LeftHandIndex1
								{
									OFFSET 0.750000 0.000000 0.000000
									CHANNELS 3 Zrotation Yrotation Xrotation
									End Site
									{
										OFFSET 0.000000 0.000000 0.000000
									}
								}
							}
						}
					}
				}
				JOINT RightShoulder
				{
					OFFSET 0.000000 0.000000 0.000000
					CHANNELS 3 Zrotation Yrotation Xrotation
					JOINT RightArm
					{
						OFFSET -2.700000 1.550000 -0.730000
						CHANNELS 3 Zrotation Yrotation Xrotation
						JOINT RightForeArm
						{
							OFFSET -5.450000 0.000000 0.000000
							CHANNELS 3 Zrotation Yrotation Xrotation
							JOINT RightHand
							{
								OFFSET -3.450000 0.000000 0.000000
								CHANNELS 3 Zrotation Yrotation Xrotation
								JOINT RightHandIndex1
								{
									OFFSET -0.750000 0.000000 0.000000
									CHANNELS 3 Zrotation Yrotation Xrotation
									End Site
									{
										OFFSET 0.000000 0.000000 0.000000
									}
								}
							}
						}
					}
				}
			}
		}
	}
}
MOTION
Frames: 8
Frame Time: 0.016667
-0.378850 15.100190 -3.410950 4.084412 24.468607 -21.089047 -15.486515 13.222925 4.383502 -15.706018 -7.649920 -19.162213 15.826933 3.448674 74.161530 1.338794 12.647762 0.538776 0.155060 -0.439870 0.108740 18.117921 -9.162491 3.241291 -14.943366 11.267592 -25.014742 2.530938 -16.456166 75.805706 -2.320676 -11.891516 0.481503 -0.273710 0.268550 0.270730 -3.286130 -4.590018 -8.722334 24.983138 -13.104672 45.738024 -12.436673 -2.824441 3.626276 8.336872 -11.223621 -22.661734 -32.880457 -6.600335 38.347774 3.729590 -19.504130 -30.330100 -12.180822 -45.392293 0.144596 6.557583 -38.465410 -13.047994 57.813180 -53.691164 -27.759281 -4.180536 2.385004 1.160740 -0.302520 0.217760 0.208750 -1.839247 57.847190 10.889745 -3.942045 18.657688 -23.022897 -42.875521 16.226814 -8.234406 2.583275 -1.275102 -0.371930 0.552000 0.299040 -0.164930 
-0.347970 15.063320 -3.387420 3.991560 23.942001 -20.566888 -15.551056 13.350134 4.429961 -15.336153 -7.879210 -20.214949 15.648321 3.758829 75.443008 1.430899 12.890691 0.472428 0.098630 -0.533770 0.055790 18.063855 -8.941635 3.298961 -14.581964 11.656707 -25.692434 1.569039 -16.386899 77.793333 -2.385655 -12.144869 0.411535 -0.350800 0.289310 0.311730 -3.060244 -5.221944 -8.784175 26.183258 -12.757049 44.993955 -11.886383 -1.596001 0.754169 8.904367 -11.578495 -24.035845 -36.305004 -4.615050 40.403707 3.417080 -20.332660 -27.852190 -13.407316 -42.686579 0.758678 4.158342 -36.570312 -9.902069 53.039551 -62.518584 -28.866324 -3.959832 2.363082 1.164270 -0.302180 0.212440 0.203040 -0.457628 56.010246 12.323109 -1.839939 17.922111 -22.499882 -44.376921 18.817413 -9.118961 2.511955 -1.258656 -0.349390 0.510490 0.342330 -0.145540 
-0.326040 15.032540 -3.363570 4.196975 23.510181 -20.646897 -15.592867 13.437669 4.533346 -14.829915 -8.498785 -20.281514 14.225495 4.839925 76.448383 1.479702 13.043941 0.411304 0.115670 -0.508000 0.070710 18.019965 -8.904976 3.197374 -13.860698 11.080005 -25.668224 -0.565088 -15.371893 79.379208 -2.416546 -12.185472 0.408118 -0.345960 0.251370 0.305320 -2.904861 -5.593562 -8.808223 25.811502 -12.593914 44.550240 -11.037318 -1.532949 -0.139601 8.941432 -11.248443 -24.498211 -36.988535 -2.785884 42.290497 3.047240 -19.518090 -27.626870 -13.636503 -41.954493 1.333815 3.199820 -34.394735 -9.139189 45.626315 -67.257765 -26.223993 -3.756132 2.410362 1.169120 -0.321770 0.230930 0.193570 -0.117750 55.177916 12.452431 -0.170527 18.110560 -22.752521 -46.657771 21.438139 -10.656462 2.454935 -1.246391 -0.330830 0.493580 0.330690 -0.152770 
-0.304200 15.007920 -3.338920 4.467412 22.426639 -20.708340 -15.644699 13.543022 4.659776 -14.104415 -9.278172 -20.338005 12.299234 6.337164 77.389512 1.504452 13.231797 0.372597 0.150360 -0.467250 0.130490 17.966160 -8.884115 3.060901 -12.604681 10.339635 -25.757546 -3.635718 -13.394377 80.871171 -2.434875 -12.102460 0.460300 -0.316530 0.223400 0.251260 -2.716729 -5.984399 -8.835131 24.618406 -12.235880 44.696655 -9.503491 -1.712643 -0.628427 8.855918 -10.851186 -24.575212 -36.553309 -1.470883 43.180114 2.149190 -17.984810 -28.396890 -13.743605 -42.158987 1.752108 2.352887 -33.518822 -8.815591 36.850429 -67.142377 -20.844134 -3.629758 2.487065 1.208110 -0.350040 0.250470 0.205470 0.111960 55.080983 12.146376 1.139749 18.711699 -23.371305 -49.408596 24.886030 -12.874995 2.395818 -1.197521 -0.368750 0.540160 0.282820 -0.177910 
-0.280530 14.987410 -3.311820 4.827764 21.139559 -20.689698 -15.687883 13.611215 4.774422 -13.340007 -9.967842 -20.556410 10.265725 8.133264 78.582786 1.568615 13.538434 0.289803 0.160010 -0.457980 0.160520 17.923031 -8.867848 2.948009 -11.479565 9.771133 -25.952341 -6.427263 -11.287178 81.664940 -2.425316 -11.988167 0.503594 -0.310490 0.202450 0.236470 -2.567879 -6.266217 -8.874468 23.806049 -11.830456 44.978700 -8.526023 -1.499146 -1.444290 8.833489 -10.583365 -24.520926 -35.910967 -0.863132 43.709294 0.635050 -17.027780 -28.331080 -14.901432 -42.543849 2.036220 1.981060 -33.279449 -8.381643 27.040679 -67.388041 -15.095028 -3.509886 2.632856 1.220050 -0.356270 0.258280 0.201110 1.337879 55.272664 11.842594 1.909349 18.991171 -24.265151 -53.828876 27.159812 -15.449207 2.368571 -1.167266 -0.379380 0.545430 0.266570 -0.194830 
-0.262440 14.972670 -3.285210 5.157272 20.485043 -20.898275 -15.705286 13.667427 4.878300 -12.816004 -10.548894 -20.212248 8.492640 9.478044 78.900779 1.638060 13.688231 0.249288 0.164760 -0.451740 0.174560 17.894948 -8.931799 2.813076 -10.764218 8.982735 -25.791996 -8.851281 -9.451626 81.979957 -2.414300 -11.887892 0.531425 -0.321430 0.172550 0.242740 -2.499973 -6.402439 -8.878161 23.456122 -11.799898 44.908050 -8.428996 -1.430776 -1.606594 9.129636 -10.223292 -24.979963 -35.841063 -0.420375 44.542832 -0.724740 -16.773000 -27.637950 -15.873148 -43.177122 2.403548 0.989095 -33.129253 -8.084756 22.320091 -67.060237 -12.297940 -3.464695 2.726993 1.208090 -0.363740 0.269480 0.193900 1.799151 55.763439 12.020369 3.119303 18.057703 -26.353661 -60.753057 28.533542 -18.955761 2.411909 -1.211385 -0.354910 0.515240 0.253090 -0.195340 
-0.243680 14.960570 -3.259740 5.165523 19.778125 -21.183557 -15.704861 13.742576 4.926727 -12.043812 -10.875556 -19.630956 7.040174 10.445579 78.700634 1.682149 13.760636 0.223421 0.155460 -0.469720 0.190300 17.877188 -9.027572 2.704360 -9.768709 8.274399 -25.432654 -11.178409 -7.629425 82.015722 -2.399755 -11.812761 0.542666 -0.343050 0.148010 0.268330 -2.484197 -6.469029 -8.860885 23.323173 -12.072577 44.773152 -8.849837 -1.473119 -1.611660 9.473483 -9.497644 -25.412421 -34.497899 -0.546104 45.061438 -2.604190 -16.265710 -25.747130 -16.890384 -43.791882 2.755158 0.566389 -32.419630 -8.033694 16.371984 -68.335410 -9.156841 -3.418923 2.882126 1.181220 -0.350800 0.270940 0.174550 2.035702 55.931614 12.428331 3.509834 15.650752 -28.116207 -66.370374 32.260018 -23.051123 2.436577 -1.242303 -0.326380 0.461540 0.251670 -0.202510 
-0.220580 14.953360 -3.227030 5.190736 18.604479 -20.850645 -15.713360 13.771954 4.975872 -11.293190 -11.203691 -19.728274 5.455473 11.614493 78.584217 1.766247 13.881693 0.199256 0.112720 -0.513970 0.170430 17.864910 -9.030838 2.674095 -8.615060 7.936681 -25.729684 -13.315128 -5.846353 82.049827 -2.390363 -11.779394 0.560279 -0.390150 0.144370 0.290440 -2.454847 -6.563929 -8.893177 23.062020 -12.387252 44.633605 -9.685238 -1.289174 -1.990803 10.207965 -8.552849 -26.543904 -33.162783 -0.297367 45.737260 -4.337320 -15.472540 -23.110250 -17.596501 -44.542699 3.744489 -0.978513 -31.393816 -8.209920 13.460636 -71.242972 -8.159033 -3.381759 2.959214 1.145690 -0.327070 0.266840 0.160940 1.452546 56.583467 12.575048 4.639732 13.640679 -30.395629 -73.568931 35.638732 -28.331024 2.484726 -1.257623 -0.298940 0.411150 0.258900 -0.195810 
